#!OML:ASF H:\LiuWeirdWalks\Patient Classification 1\Patient 1\Session 1\male.ASF
:FULLY-SPECIFIED
:DEGREES
939
root 0.898921 18.193 1.14718 2.27605 3.66649 1.86036
lowerback 11.8725 -0.53695 4.84826
upperback 1.2141 0.380118 7.65589
thorax -5.42788 0.169509 5.32044
lowerneck -19.0837 0.879373 7.73303
upperneck 14.0905 2.59328 -19.057
head 7.91789 -0.173546 -7.49824
rclavicle 1.59028e-015 -1.90833e-014
rhumerus -16.6818 -32.534 -14.1969
rradius 30.3071
rwrist 1.85152
rhand -22.501 -6.39362
rfingers 7.12502
rthumb 3.92497 -36.3372
lclavicle 1.59028e-015 -1.90833e-014
lhumerus -25.6279 27.2308 20.1457
lradius 41.6325
lwrist 10.4628
lhand -19.9588 -3.33556
lfingers 7.12502
lthumb 6.37958 26.5484
rfemur -3.7436 0.19222 18.519
rtibia 25.3577
rfoot -14.1317 -21.5518
rtoes -3.08329
lfemur -23.6619 3.8962 -17.1145
ltibia 22.5412
lfoot -5.30795 13.5076
ltoes -16.8528
940
root 0.897383 18.1863 1.21226 2.26377 3.55851 1.61029
lowerback 11.8448 -0.518569 4.74488
upperback 1.21247 0.382547 7.56942
thorax -5.41383 0.171686 5.28395
lowerneck -19.0537 0.928806 7.83869
upperneck 14.0478 2.60797 -18.9493
head 7.89842 -0.147712 -7.47317
rclavicle -2.06736e-014 -3.49861e-014
rhumerus -16.6468 -32.3875 -14.0528
rradius 30.3183
rwrist 1.82909
rhand -22.4931 -6.4205
rfingers 7.12502
rthumb 3.93265 -36.364
lclavicle -2.06736e-014 -3.49861e-014
lhumerus -25.6172 27.2407 20.1735
lradius 41.684
lwrist 10.4347
lhand -19.9706 -3.33458
lfingers 7.12502
lthumb 6.36824 26.5497
rfemur -3.47613 0.0962519 18.7807
rtibia 25.2434
rfoot -14.1598 -21.3623
rtoes -3.37339
lfemur -23.6763 3.77553 -16.7962
ltibia 22.2829
lfoot -5.38379 13.8128
ltoes -16.8694
941
root 0.897038 18.1793 1.27746 2.25455 3.44744 1.38097
lowerback 11.8209 -0.4973 4.62615
upperback 1.20945 0.386853 7.47389
thorax -5.40339 0.175017 5.24626
lowerneck -19.0282 0.983212 7.95298
upperneck 13.9898 2.62564 -18.8448
head 7.87548 -0.120041 -7.44991
rclavicle 1.03368e-014 -6.36111e-015
rhumerus -16.6243 -32.2024 -13.926
rradius 30.3425
rwrist 1.75678
rhand -22.4974 -6.46624
rfingers 7.12502
rthumb 3.92849 -36.4098
lclavicle 1.03368e-014 -6.36111e-015
lhumerus -25.593 27.2656 20.1867
lradius 41.7241
lwrist 10.3858
lhand -19.9534 -3.38242
lfingers 7.12502
lthumb 6.38478 26.5013
rfemur -3.22201 -0.019941 19.0076
rtibia 25.1559
rfoot -14.1921 -21.1455
rtoes -3.69697
lfemur -23.682 3.65064 -16.5057
ltibia 22.0575
lfoot -5.45516 14.1235
ltoes -16.8788
942
root 0.897829 18.1719 1.34268 2.24938 3.33444 1.17366
lowerback 11.8027 -0.475949 4.48737
upperback 1.20397 0.389176 7.37226
thorax -5.39879 0.177749 5.21398
lowerneck -19.036 1.02514 8.01091
upperneck 13.9721 2.63573 -18.6846
head 7.86867 -0.0969418 -7.39974
rclavicle 3.45885e-014 6.36111e-015
rhumerus -16.5857 -32.0525 -13.8202
rradius 30.3478
rwrist 1.71279
rhand -22.4981 -6.52225
rfingers 7.12502
rthumb 3.92781 -36.4658
lclavicle 3.45885e-014 6.36111e-015
lhumerus -25.5818 27.2959 20.1781
lradius 41.7656
lwrist 10.3478
lhand -19.9095 -3.46822
lfingers 7.12502
lthumb 6.42723 26.4143
rfemur -2.98394 -0.152641 19.199
rtibia 25.0971
rfoot -14.2337 -20.9032
rtoes -4.04399
lfemur -23.6775 3.52197 -16.2454
ltibia 21.8613
lfoot -5.51862 14.413
ltoes -16.8952
943
root 0.900263 18.1644 1.40855 2.24671 3.21963 0.982577
lowerback 11.7785 -0.454766 4.34245
upperback 1.20813 0.388627 7.2621
thorax -5.38031 0.179102 5.17613
lowerneck -19.1247 1.06212 8.02268
upperneck 14.0323 2.64938 -18.4703
head 7.90063 -0.0757966 -7.32672
rclavicle 1.66979e-014 -1.59028e-014
rhumerus -16.5354 -31.952 -13.7387
rradius 30.3401
rwrist 1.70559
rhand -22.5088 -6.58371
rfingers 7.12502
rthumb 3.91745 -36.5274
lclavicle 1.66979e-014 -1.59028e-014
lhumerus -25.5586 27.3623 20.1533
lradius 41.7982
lwrist 10.3027
lhand -19.8567 -3.59009
lfingers 7.12502
lthumb 6.47812 26.2908
rfemur -2.75745 -0.324362 19.3544
rtibia 25.0665
rfoot -14.2824 -20.611
rtoes -4.42552
lfemur -23.6594 3.39244 -16.0115
ltibia 21.6917
lfoot -5.55087 14.6649
ltoes -16.9141
